<?xml version="1.0" encoding="UTF-8"?>
<!DOCTYPE svg PUBLIC "-//W3C//DTD SVG 1.1//EN" "http://www.w3.org/Graphics/SVG/1.1/DTD/svg11.dtd">
<!-- Creator: CorelDRAW -->
<svg xmlns="http://www.w3.org/2000/svg" xml:space="preserve" width="300mm" height="55.1479mm" version="1.1" style="shape-rendering:geometricPrecision; text-rendering:geometricPrecision; image-rendering:optimizeQuality; fill-rule:evenodd; clip-rule:evenodd"
viewBox="0 0 7765.14 1427.44"
 xmlns:xlink="http://www.w3.org/1999/xlink"
 xmlns:xodm="http://www.corel.com/coreldraw/odm/2003">
 <defs>
  <style type="text/css">
   <![CDATA[
    .fil0 {fill:#00A1F1;fill-rule:nonzero}
    .fil1 {fill:#1556C1;fill-rule:nonzero}
   ]]>
  </style>
 </defs>
 <g id="Layer_x0020_1">
  <metadata id="CorelCorpID_0Corel-Layer"/>
  <g id="_1538728896">
   <path class="fil0" d="M895.87 1139.68l-2.83 -525.9 -255.15 428.09 -124.74 0 -253.74 -413.91 0 511.72 -259.4 0 0 -992.26 231.05 0 348.71 572.68 340.2 -572.68 231.05 0 2.83 992.26 -257.99 0zm443.68 -768.29l269.33 0 0 768.29 -269.33 0 0 -768.29zm134.67 -85.05c-49.14,0 -88.83,-13.7 -119.07,-41.11 -30.24,-27.41 -45.36,-61.42 -45.36,-102.06 0,-40.64 15.12,-74.66 45.36,-102.06 30.24,-27.41 69.93,-41.11 119.07,-41.11 49.14,0 88.83,12.99 119.07,38.98 30.24,25.99 45.36,59.3 45.36,99.93 0,42.52 -15.12,77.73 -45.36,105.6 -30.24,27.88 -69.93,41.82 -119.07,41.82zm809.4 72.29c95.45,0 172.23,28.35 230.35,85.05 58.12,56.7 87.18,142.22 87.18,256.57l0 439.43 -269.33 0 0 -395.49c0,-104.9 -42.05,-157.35 -126.16,-157.35 -46.31,0 -83.4,15.12 -111.28,45.36 -27.88,30.24 -41.82,75.6 -41.82,136.08l0 371.39 -269.33 0 0 -768.29 256.57 0 0 83.63c30.24,-31.18 66.15,-55.04 107.73,-71.58 41.58,-16.54 86.94,-24.8 136.08,-24.8zm1314.04 -270.75l0 1051.8 -256.57 0 0 -76.55c-50.09,59.54 -125.21,89.3 -225.38,89.3 -69.93,0 -133.72,-16.3 -191.37,-48.9 -57.64,-32.6 -103.24,-79.14 -136.79,-139.63 -33.55,-60.48 -50.32,-130.41 -50.32,-209.79 0,-79.38 16.78,-149.08 50.32,-209.08 33.55,-60.01 79.14,-106.08 136.79,-138.21 57.65,-32.13 121.43,-48.2 191.37,-48.2 91.66,0 162.54,26.46 212.63,79.38l0 -350.13 269.33 0zm-425.26 850.51c46.31,0 84.58,-16.3 114.82,-48.9 30.24,-32.6 45.36,-77.73 45.36,-135.37 0,-56.7 -14.88,-101.12 -44.65,-133.25 -29.77,-32.13 -68.28,-48.2 -115.53,-48.2 -47.25,0 -85.99,16.07 -116.24,48.2 -30.24,32.13 -45.36,76.55 -45.36,133.25 0,57.64 15.12,102.77 45.36,135.37 30.24,32.6 68.99,48.9 116.24,48.9zm925.64 -579.76c127.58,0 224.91,29.06 292.01,87.18 67.1,58.12 100.64,147.19 100.64,267.2l0 426.67 -250.9 0 0 -99.23c-38.75,74.65 -114.35,111.98 -226.8,111.98 -59.54,0 -111.04,-10.39 -154.51,-31.18 -43.47,-20.79 -76.31,-48.9 -98.52,-84.34 -22.21,-35.44 -33.31,-75.84 -33.31,-121.2 0,-72.76 27.88,-129.23 83.63,-169.39 55.76,-40.16 141.75,-60.24 257.99,-60.24l153.09 0c-4.72,-81.27 -59.06,-121.91 -163.01,-121.91 -36.85,0 -74.18,5.91 -111.98,17.72 -37.8,11.81 -69.93,28.11 -96.39,48.9l-90.72 -182.86c42.53,-28.35 94.27,-50.32 155.22,-65.91 60.95,-15.59 122.14,-23.39 183.57,-23.39zm-9.92 623.7c31.18,0 58.59,-7.56 82.21,-22.68 23.63,-15.12 40.63,-37.33 51.03,-66.62l0 -66.62 -116.23 0c-78.44,0 -117.65,25.99 -117.65,77.96 0,23.62 8.98,42.52 26.93,56.7 17.96,14.17 42.53,21.26 73.71,21.26z"/>
   <path class="fil1" d="M4673.54 147.42l280.67 0 0 769.71 473.45 0 0 222.55 -754.12 0 0 -992.26zm1234.66 1005.02c-82.22,0 -156.4,-17.01 -222.55,-51.03 -66.15,-34.02 -117.89,-81.27 -155.22,-141.75 -37.33,-60.48 -55.99,-128.99 -55.99,-205.54 0,-75.6 18.66,-143.64 55.99,-204.12 37.33,-60.48 88.83,-107.5 154.51,-141.04 65.68,-33.55 140.1,-50.32 223.26,-50.32 83.16,0 157.82,16.77 223.97,50.32 66.15,33.55 117.65,80.33 154.51,140.33 36.86,60.01 55.28,128.29 55.28,204.83 0,76.54 -18.43,145.06 -55.28,205.54 -36.86,60.48 -88.36,107.73 -154.51,141.75 -66.15,34.02 -140.81,51.03 -223.97,51.03zm0 -214.05c47.25,0 86,-16.3 116.24,-48.9 30.24,-32.6 45.36,-77.73 45.36,-135.37 0,-56.7 -15.12,-101.12 -45.36,-133.25 -30.24,-32.13 -68.99,-48.2 -116.24,-48.2 -47.25,0 -86,16.07 -116.24,48.2 -30.24,32.13 -45.36,76.55 -45.36,133.25 0,57.64 15.12,102.77 45.36,135.37 30.24,32.6 68.99,48.9 116.24,48.9zm1384.91 -567.01l0 627.96c0,142.7 -38.75,249.72 -116.24,321.07 -77.49,71.35 -189,107.02 -334.53,107.02 -75.6,0 -146.48,-8.51 -212.63,-25.52 -66.15,-17.01 -122.38,-42.05 -168.68,-75.13l97.81 -188.53c31.18,25.52 70.64,45.6 118.36,60.24 47.72,14.65 94.74,21.97 141.04,21.97 70.88,0 122.85,-15.59 155.93,-46.78 33.08,-31.18 49.61,-77.49 49.61,-138.92l0 -25.51c-51.97,60.48 -128.05,90.72 -228.22,90.72 -68.04,0 -130.88,-15.36 -188.53,-46.07 -57.65,-30.71 -103.48,-74.18 -137.5,-130.41 -34.02,-56.23 -51.03,-121.2 -51.03,-194.91 0,-72.76 17.01,-137.26 51.03,-193.49 34.02,-56.23 79.85,-99.7 137.5,-130.41 57.65,-30.71 120.49,-46.07 188.53,-46.07 109.62,0 189.95,35.44 240.98,106.31l0 -93.56 256.57 0zm-433.76 514.56c48.2,0 88.12,-14.65 119.78,-43.94 31.66,-29.3 47.49,-67.1 47.49,-113.4 0,-46.31 -15.59,-83.87 -46.78,-112.69 -31.18,-28.82 -71.35,-43.23 -120.49,-43.23 -49.14,0 -89.54,14.41 -121.2,43.23 -31.66,28.82 -47.49,66.39 -47.49,112.69 0,46.31 16.07,84.11 48.2,113.4 32.13,29.3 72.29,43.94 120.49,43.94zm606.7 -514.56l269.33 0 0 768.29 -269.33 0 0 -768.29zm134.67 -85.05c-49.14,0 -88.83,-13.7 -119.07,-41.11 -30.24,-27.41 -45.36,-61.42 -45.36,-102.06 0,-40.64 15.12,-74.66 45.36,-102.06 30.24,-27.41 69.93,-41.11 119.07,-41.11 49.14,0 88.83,12.99 119.07,38.98 30.24,25.99 45.36,59.3 45.36,99.93 0,42.52 -15.12,77.73 -45.36,105.6 -30.24,27.88 -69.93,41.82 -119.07,41.82z"/>
  </g>
 </g>
</svg>
